<?xml version="1.0" standalone="no"?><!DOCTYPE svg PUBLIC "-//W3C//DTD SVG 1.1//EN" "http://www.w3.org/Graphics/SVG/1.1/DTD/svg11.dtd"><svg t="1530684983827" class="icon" style="" viewBox="0 0 1024 1024" version="1.1" xmlns="http://www.w3.org/2000/svg" p-id="3097" xmlns:xlink="http://www.w3.org/1999/xlink" width="200" height="200"><defs><style type="text/css"></style></defs><path d="M512.001535 646.149303c-24.697495 0-44.716434 20.019962-44.716434 44.717458 0 24.702612 20.018939 44.720527 44.716434 44.720527 24.687262 0 44.716434-20.018939 44.716434-44.720527C556.717969 666.174382 536.693914 646.149303 512.001535 646.149303L512.001535 646.149303zM377.841999 288.397363l268.307815 0 0 313.045739L377.841999 601.443102 377.841999 288.397363 377.841999 288.397363zM512.001535 64.821331c-246.966765 0-447.181739 200.205764-447.181739 447.179692C64.819796 758.964718 265.03477 959.178669 512.001535 959.178669 758.969323 959.178669 959.179181 758.964718 959.179181 512.001023 959.179181 265.027096 758.969323 64.821331 512.001535 64.821331L512.001535 64.821331zM690.871365 735.587288c0 24.707728-20.019962 44.719504-44.720527 44.719504L377.841999 780.306792c-24.695448 0-44.710294-20.012799-44.710294-44.719504L333.131705 288.397363c0-24.681122 20.014846-44.706201 44.710294-44.706201l268.307815 0c24.705682 0 44.720527 20.025079 44.720527 44.706201L690.870342 735.587288 690.871365 735.587288zM690.871365 735.587288" p-id="3098" fill="#d4237a"></path></svg>